# AST/ASF file generated using VICON BodyLanguage
# -----------------------------------------------
:version 1.10
:name VICON
:units
  mass 1.0
  length 0.45
  angle deg
:documentation
   .ast/.asf automatically generated from VICON data using
   VICON BodyBuilder and BodyLanguage model FoxedUp or BRILLIANT.MOD
:root
   order TX TY TZ RX RY RZ
   axis XYZ
   position 0 0 0  
   orientation 0 0 0 
:bonedata
  begin
     id 1 
     name lhipjoint
     direction 0.567149 -0.783011 0.255413 
     length 2.28399 
     axis 0 0 0  XYZ
  end
  begin
     id 2 
     name lfemur
     direction 0.34202 -0.939693 0  
     length 7.34031  
     axis 0 0 20  XYZ
    dof rx ry rz
    limits (-160.0 20.0)
           (-70.0 70.0)
           (-60.0 70.0)
  end
  begin
     id 3 
     name ltibia
     direction 0.34202 -0.939693 0   
     length 6.9833   
     axis 0 0 20   XYZ
    dof rx
    limits (-10.0 170.0)
  end
  begin
     id 4 
     name lfoot
     direction 0.136498 -0.375025 0.91691   
     length 2.33665   
     axis -90 7.62852e-016 20   XYZ
    dof rx rz
    limits (-45.0 90.0)
           (-70.0 20.0)
  end
  begin
     id 5 
     name ltoes
     direction 1.5367e-011 -4.21617e-011 1   
     length 1.15039   
     axis -90 7.62852e-016 20   XYZ
    dof rx
    limits (-90.0 20.0)
  end
  begin
     id 6 
     name rhipjoint
     direction -0.602854 -0.758518 0.247423   
     length 2.35775  
     axis 0 0 0  XYZ 
  end
  begin
     id 7 
     name rfemur
     direction -0.34202 -0.939693 0   
     length 7.43932   
     axis 0 0 -20   XYZ
    dof rx ry rz
    limits (-160.0 20.0)
           (-70.0 70.0)
           (-70.0 60.0)
  end
  begin
     id 8 
     name rtibia
     direction -0.34202 -0.939693 0   
     length 7.11893   
     axis 0 0 -20   XYZ
    dof rx
    limits (-10.0 170.0)
 end
 begin
     id 9 
     name rfoot
     direction -0.131771 -0.362037 0.922803   
     length 2.53019  
     axis -90 -7.62852e-016 -20   XYZ
    dof rx rz
    limits (-45.0 90.0)
           (-20.0 70.0)
  end
  begin
     id 10 
     name rtoes
     direction -1.53733e-011 -4.21932e-011 1   
     length 1.24596   
     axis -90 -7.62852e-016 -20   XYZ
    dof rx
    limits (-90.0 20.0)
  end
  begin
     id 11 
     name lowerback
     direction 0.0235427 0.999023 -0.0374125   
     length 2.21768   
     axis 0 0 0   XYZ
    dof rx ry rz
    limits (-20.0 45.0)
           (-30.0 30.0)
           (-30.0 30.0)
  end
  begin
     id 12 
     name upperback
     direction 0.0302156 0.996818 -0.073759   
     length 2.20352   
     axis 0 0 0   XYZ
    dof rx ry rz
    limits (-20.0 45.0)
           (-30.0 30.0)
           (-30.0 30.0)
  end
  begin
     id 13 
     name thorax
     direction 0.0187169 0.998235 -0.0563532   
     length 2.22103   
     axis 0 0 0   XYZ
    dof rx ry rz
    limits (-20.0 45.0)
           (-30.0 30.0)
           (-30.0 30.0)
  end
  begin
     id 14 
     name lowerneck
     direction -0.119528 0.987423 0.103481   
     length 1.72948   
     axis 0 0 0   XYZ
    dof rx ry rz
    limits (-20.0 45.0)
           (-30.0 30.0)
           (-30.0 30.0)
  end
  begin
     id 15 
     name upperneck
     direction 0.248049 0.963095 -0.104496   
     length 1.74979   
     axis 0 0 0   XYZ
    dof rx ry rz
    limits (-20.0 45.0)
           (-30.0 30.0)
           (-30.0 30.0)
  end
  begin
     id 16
     name head
     direction 0.0903589 0.994284 -0.056876  
     length 1.78268  
     axis 0 0 0   XYZ
    dof rx ry rz
    limits (-20.0 45.0)
           (-30.0 30.0)
           (-30.0 30.0)
  end
  begin
     id 17 
     name lclavicle
     direction 0.946008 0.242039 -0.215608  
     length 3.80783  
     axis 0 0 0   XYZ
    dof ry rz
    limits (-20.0 10.0)
           (0.0 20.0)
  end
  begin
     id 18 
     name lhumerus
     direction 1 -4.48991e-011 -2.25695e-027   
     length 4.83125   
     axis 180 -30 -90   XYZ
    dof rx ry rz
    limits (-60.0 90.0)
           (-90.0 90.0)
           (-90.0 90.0)
  end
  begin
     id 19
     name lradius
     direction 0.999991 0.00366712 -0.00211721   
     length 3.00391   
     axis 180 -30 -90   XYZ
    dof rx
    limits (-10.0 170.0)
  end
  begin
     id 20
     name lwrist
     direction 0.999991 0.00393016 -0.00141978   
     length 1.50195   
     axis -1.00488e-014 90 90   XYZ
    dof ry
    limits (-180.0 0.0)
 end
  begin
     id 21 
     name lhand
     direction 1 -4.49123e-011 2.72098e-026   
     length 1.2717   
     axis -1.73687e-014 90 90   XYZ
    dof rx rz
    limits (-90.0 90.0)
           (-45.0 45.0)
  end
  begin
     id 22 
     name lfingers
     direction 1 -4.48678e-011 5.4479e-026   
     length 1.02528   
     axis -3.47372e-014 90 90   XYZ
    dof rx
    limits (0.0 90.0)
  end
  begin
     id 23
     name lthumb
     direction 0.707107 -6.34851e-011 0.707107   
     length 1.4721   
     axis -90 45 -1.62303e-014   XYZ
    dof rx rz
    limits (-45.0 45.0)
           (-45.0 45.0)
  end
  begin
     id 24 
     name rclavicle
     direction -0.981723 0.189447 -0.0181673   
     length 3.74989  
     axis 0 0 0   XYZ 
    dof ry rz
    limits (-10.0 20.0)
           (-20.0 0.0)
  end
  begin
     id 25 
     name rhumerus
     direction -1 -4.48985e-011 2.38206e-027  
     length 4.61118   
     axis 180 30 90   XYZ
    dof rx ry rz
    limits (-90.0 60.0)
           (-90.0 90.0)
           (-90.0 90.0)
  end
  begin
     id 26 
     name rradius
     direction -1 -4.48977e-011 7.41019e-027   
     length 2.91491   
     axis 180 30 90   XYZ
    dof rx
    limits (-10.0 170.0)
  end
  begin
     id 27 
     name rwrist
     direction -1 -4.48549e-011 1.3624e-026   
     length 1.45745   
     axis -1.00488e-014 -90 -90   XYZ
    dof ry
    limits (-180.0 0.0)
  end
  begin
     id 28
     name rhand
     direction -1 -4.49107e-011 2.72109e-026   
     length 1.30769   
     axis -1.73687e-014 -90 -90   XYZ
    dof rx rz
    limits (-90.0 90.0)
           (-45.0 45.0)
  end
  begin
     id 29
     name rfingers
     direction -1 -4.48919e-011 5.44468e-026   
     length 1.05429   
     axis -3.47372e-014 -90 -90   XYZ
    dof rx
    limits (0.0 90.0)
  end
  begin
     id 30
     name rthumb
     direction -0.707107 -6.35315e-011 0.707107   
     length 1.51376   
     axis -90 -45 1.62303e-014   XYZ
    dof rx rz
    limits (-45.0 45.0)
           (-45.0 45.0)
  end
:hierarchy
  begin
    root lhipjoint rhipjoint lowerback
    lhipjoint lfemur
    lfemur ltibia
    ltibia lfoot
    lfoot ltoes
    rhipjoint rfemur
    rfemur rtibia
    rtibia rfoot
    rfoot rtoes
    lowerback upperback
    upperback thorax
    thorax lowerneck lclavicle rclavicle
    lowerneck upperneck
    upperneck head
    lclavicle lhumerus
    lhumerus lradius
    lradius lwrist
    lwrist lhand lthumb
    lhand lfingers
    rclavicle rhumerus
    rhumerus rradius
    rradius rwrist
    rwrist rhand rthumb
    rhand rfingers
  end

#!OML:ASF X:\für Bonn\!DataBase\2005_08_11_Bastian_Final\c3d\Bastian.ASF
:FULLY-SPECIFIED
:DEGREES
1
root -1.30653 17.149 2.13089 168.3 -0.56844 -174.497
lowerback 10.0124 -0.183208 1.01587
upperback 5.43652 -0.739482 1.61193
thorax 0.0464808 -0.628105 1.16568
lowerneck -7.5957 -5.70558 -4.8351
upperneck -2.64711 -6.93356 9.90823
head 1.06948 -3.1432 3.84774
rclavicle -1.27222e-014 4.57205e-015
rhumerus 77.8724 18.1546 16.2507
rradius 39.7963
rwrist -66.0626
rhand -46.4773 -10.5178
rfingers 7.12502
rthumb -19.2047 -39.5896
lclavicle -1.27222e-014 4.57205e-015
lhumerus 80.0218 -22.6837 -39.7248
lradius 31.1268
lwrist 38.7459
lhand -39.0667 20.6704
lfingers 7.12502
lthumb -12.0679 50.3024
rfemur -3.13354 1.24294 29.9549
rtibia 39.6435
rfoot -19.4944 -11.4203
rtoes 1.25576
lfemur -2.14097 -1.0907 -14.6522
ltibia 37.8774
lfoot -18.1996 0.426583
ltoes -14.4219
2
root -1.30001 17.1395 2.12772 168.28 -0.649894 -174.429
lowerback 10.1856 -0.214977 1.03597
upperback 5.43377 -0.781891 1.62693
thorax -0.050078 -0.651659 1.17685
lowerneck -7.47753 -5.69621 -4.85789
upperneck -2.7134 -6.91813 9.93754
head 1.0281 -3.13929 3.86646
rclavicle 1.36664e-015 -1.98785e-015
rhumerus 77.7581 18.1625 15.9372
rradius 39.7712
rwrist -66.0484
rhand -46.364 -10.4818
rfingers 7.12502
rthumb -19.0957 -39.5644
lclavicle 1.36664e-015 -1.98785e-015
lhumerus 79.8792 -22.737 -39.7813
lradius 31.2147
lwrist 38.4857
lhand -39.0673 20.6552
lfingers 7.12502
lthumb -12.0686 50.2872
rfemur -3.23494 0.81645 29.9431
rtibia 39.8083
rfoot -19.6117 -11.1482
rtoes 1.01408
lfemur -2.30027 -1.06552 -14.5523
ltibia 38.1915
lfoot -18.37 0.377175
ltoes -14.7883
3
root -1.29427 17.1279 2.12512 168.233 -0.764797 -174.387
lowerback 10.4028 -0.2463 1.03986
upperback 5.42492 -0.823795 1.62735
thorax -0.176951 -0.674963 1.18306
lowerneck -7.32776 -5.71114 -4.90797
upperneck -2.78489 -6.93428 10.0029
head 0.98494 -3.15133 3.9024
rclavicle -8.00108e-015 2.24627e-014
rhumerus 77.6163 18.2053 15.6154
rradius 39.7395
rwrist -65.9587
rhand -46.2211 -10.5175
rfingers 7.12502
rthumb -18.9583 -39.6136
lclavicle -8.00108e-015 2.24627e-014
lhumerus 79.6588 -22.8272 -39.4136
lradius 31.1912
lwrist 37.8377
lhand -38.9614 20.5927
lfingers 7.12502
lthumb -11.9664 50.2306
rfemur -3.33337 0.270867 29.8709
rtibia 40.0119
rfoot -19.7297 -10.8392
rtoes 0.571051
lfemur -2.45899 -1.03236 -14.4839
ltibia 38.5608
lfoot -18.5716 0.281353
ltoes -15.0082
4
root -1.28882 17.1133 2.12293 168.174 -0.894698 -174.316
lowerback 10.6301 -0.290578 1.0655
upperback 5.43327 -0.884642 1.64625
thorax -0.290927 -0.709215 1.19846
lowerneck -7.22906 -5.71079 -4.91657
upperneck -2.85324 -6.93154 9.99883
head 0.945084 -3.154 3.90567
rclavicle 1.68967e-015 2.76311e-014
rhumerus 77.486 18.206 15.369
rradius 39.7203
rwrist -65.8821
rhand -46.039 -10.5318
rfingers 7.12502
rthumb -18.7832 -39.6449
lclavicle 1.68967e-015 2.76311e-014
lhumerus 79.3234 -22.946 -38.7495
lradius 31.0963
lwrist 37.0535
lhand -38.8672 20.4186
lfingers 7.12502
lthumb -11.8756 50.0619
rfemur -3.44464 -0.294542 29.8209
rtibia 40.2657
rfoot -19.9114 -10.4909
rtoes 0.348206
lfemur -2.63703 -1.06698 -14.3969
ltibia 38.9789
lfoot -18.8103 0.204556
ltoes -15.2599
5
root -1.283 17.0967 2.13049 168.122 -1.03325 -174.253
lowerback 10.9601 -0.331542 1.08314
upperback 5.41981 -0.938776 1.65792
thorax -0.483357 -0.740104 1.21285
lowerneck -7.1379 -5.71807 -4.92698
upperneck -2.9127 -6.93899 10.0142
head 0.91135 -3.16083 3.91543
rclavicle 1.963e-015 -1.19271e-015
rhumerus 77.3777 18.2021 15.1991
rradius 39.7175
rwrist -65.8204
rhand -45.9276 -10.5952
rfingers 7.12502
rthumb -18.676 -39.7186
lclavicle 1.963e-015 -1.19271e-015
lhumerus 79.0474 -23.0369 -38.227
lradius 31.0335
lwrist 36.3946
lhand -38.8252 20.3994
lfingers 7.12502
lthumb -11.8351 50.0449
rfemur -3.62875 -0.869352 29.753
rtibia 40.5665
rfoot -20.0528 -10.136
rtoes 0.185355
lfemur -2.89548 -1.08512 -14.3192
ltibia 39.4572
lfoot -19.0365 0.13594
ltoes -15.4889
6
root -1.27711 17.0776 2.13618 168.073 -1.17852 -174.183
lowerback 11.2814 -0.375162 1.11535
upperback 5.39602 -0.992877 1.66478
thorax -0.681871 -0.769819 1.21464
lowerneck -7.02653 -5.73383 -4.94367
upperneck -2.969 -6.95898 10.036
head 0.876683 -3.17458 3.92859
rclavicle -2.23633e-015 -1.47101e-014
rhumerus 77.2793 18.2296 15.1097
rradius 39.733
rwrist -65.8074
rhand -45.894 -10.5901
rfingers 7.12502
rthumb -18.6437 -39.7167
lclavicle -2.23633e-015 -1.47101e-014
lhumerus 78.7869 -23.1347 -37.8071
lradius 31.0343
lwrist 35.9113
lhand -38.8522 20.3312
lfingers 7.12502
lthumb -11.8611 49.9753
rfemur -3.83575 -1.43969 29.7019
rtibia 40.9199
rfoot -20.2193 -9.82213
rtoes -0.0709366
lfemur -3.1792 -1.10053 -14.2265
ltibia 39.9913
lfoot -19.3009 0.0346073
ltoes -15.4832
7
root -1.27119 17.0558 2.14168 168.02 -1.32178 -174.094
lowerback 11.6047 -0.419657 1.14451
upperback 5.37718 -1.04962 1.69608
thorax -0.875519 -0.802004 1.24442
lowerneck -6.92851 -5.7426 -4.94549
upperneck -3.02778 -6.97094 10.0097
head 0.839919 -3.18526 3.92205
rclavicle -5.7896e-015 -9.54166e-015
rhumerus 77.1821 18.2678 15.0081
rradius 39.7593
rwrist -65.7611
rhand -45.8719 -10.549
rfingers 7.12502
rthumb -18.6225 -39.6776
lclavicle -5.7896e-015 -9.54166e-015
lhumerus 78.563 -23.2291 -37.504
lradius 31.0466
lwrist 35.5681
lhand -38.8644 20.3452
lfingers 7.12502
lthumb -11.8729 49.9885
rfemur -4.05336 -1.9774 29.677
rtibia 41.3196
rfoot -20.4263 -9.52465
rtoes -0.226359
lfemur -3.48822 -1.12549 -14.1204
ltibia 40.5926
lfoot -19.6172 -0.0360191
ltoes -15.6445
8
root -1.26651 17.0308 2.14802 167.947 -1.47284 -174.004
lowerback 11.9456 -0.472899 1.21084
upperback 5.37038 -1.11574 1.70136
thorax -1.06685 -0.838757 1.22833
lowerneck -6.80186 -5.75384 -4.92264
upperneck -3.13962 -6.98187 10.0017
head 0.78061 -3.1956 3.9186
rclavicle 1.00635e-014 -2.3059e-014
rhumerus 77.0951 18.3039 15.049
rradius 39.8369
rwrist -65.8341
rhand -45.9855 -10.4884
rfingers 7.12502
rthumb -18.7318 -39.6065
lclavicle 1.00635e-014 -2.3059e-014
lhumerus 78.3217 -23.3092 -37.2169
lradius 31.0609
lwrist 35.2198
lhand -38.8873 20.3638
lfingers 7.12502
lthumb -11.895 50.0059
rfemur -4.28759 -2.58997 29.6281
rtibia 41.7815
rfoot -20.6654 -9.17965
rtoes -0.271699
lfemur -3.81637 -1.10868 -14.0007
ltibia 41.2495
lfoot -19.9672 -0.175978
ltoes -15.4682
9
root -1.26181 17.0027 2.15397 167.886 -1.60256 -173.938
lowerback 12.2765 -0.511167 1.23504
upperback 5.3635 -1.16613 1.72377
thorax -1.25189 -0.868576 1.25223
lowerneck -6.73345 -5.76921 -4.93161
upperneck -3.18254 -7.0028 9.97284
head 0.755222 -3.20966 3.91137
rclavicle -1.72694e-014 1.94809e-014
rhumerus 77.0157 18.3433 15.1602
rradius 39.9354
rwrist -65.972
rhand -46.1468 -10.3781
rfingers 7.12502
rthumb -18.8869 -39.4811
lclavicle -1.72694e-014 1.94809e-014
lhumerus 78.1094 -23.3824 -37.0784
lradius 31.1336
lwrist 35.102
lhand -38.9405 20.3869
lfingers 7.12502
lthumb -11.9463 50.0261
rfemur -4.55534 -3.15333 29.5658
rtibia 42.2942
rfoot -20.9108 -8.88377
rtoes -0.220659
lfemur -4.17787 -1.06711 -13.9076
ltibia 41.9765
lfoot -20.3434 -0.306878
ltoes -15.4043
